<svg width="291" height="30" viewBox="0 0 291 30" fill="none" xmlns="http://www.w3.org/2000/svg">
<path d="M151.258 5.75999C149.658 2.35999 146.978 0.679993 143.178 0.679993C140.978 0.679993 139.178 1.39999 137.698 2.87999C136.258 4.35999 135.538 6.15999 135.538 8.27999C135.458 13.44 139.778 15.56 143.098 16.96C145.458 17.96 147.258 19.24 147.258 20.88C147.258 23.32 146.058 24.52 143.618 24.52C140.978 24.52 139.138 22.64 138.058 18.84L133.858 21.48C134.298 23.68 135.418 25.56 137.178 27.08C138.938 28.56 141.058 29.32 143.498 29.32C148.938 29.32 152.458 26.04 152.458 20.6C152.498 15.76 148.058 13.68 144.698 12.2C142.418 11.12 140.498 9.79999 140.498 8.03999C140.498 6.55999 141.618 5.47999 143.178 5.47999C144.738 5.47999 146.058 6.47999 147.058 8.43999L151.258 5.75999Z" fill="#D195E4"/>
<path d="M161.818 5.79999V29H167.018V5.79999H174.778V0.999991H154.058V5.79999H161.818Z" fill="#D195E4"/>
<path d="M178.852 29H196.572V24.2H184.052V16.48H193.772V11.68H184.052V5.79999H196.172V0.999991H178.852V29Z" fill="#D195E4"/>
<path d="M222.136 0.999991H216.376L210.096 21.72L203.816 0.999991H198.056L207.456 29H212.736L222.136 0.999991Z" fill="#D195E4"/>
<path d="M224.77 29H242.49V24.2H229.97V16.48H239.69V11.68H229.97V5.79999H242.09V0.999991H224.77V29Z" fill="#D195E4"/>
<path d="M262.63 19.48L252.35 0.999991H246.87V29H252.07V10.52L262.35 29H267.83V0.999991H262.63V19.48Z" fill="#D195E4"/>
<path d="M288.858 5.75999C287.258 2.35999 284.578 0.679993 280.778 0.679993C278.578 0.679993 276.778 1.39999 275.298 2.87999C273.858 4.35999 273.138 6.15999 273.138 8.27999C273.058 13.44 277.378 15.56 280.698 16.96C283.058 17.96 284.858 19.24 284.858 20.88C284.858 23.32 283.658 24.52 281.218 24.52C278.578 24.52 276.738 22.64 275.658 18.84L271.458 21.48C271.898 23.68 273.018 25.56 274.778 27.08C276.538 28.56 278.658 29.32 281.098 29.32C286.538 29.32 290.058 26.04 290.058 20.6C290.098 15.76 285.658 13.68 282.298 12.2C280.018 11.12 278.098 9.79999 278.098 8.03999C278.098 6.55999 279.218 5.47999 280.778 5.47999C282.338 5.47999 283.658 6.47999 284.658 8.43999L288.858 5.75999Z" fill="#D195E4"/>
<path d="M18.2922 5.75999C16.6922 2.35999 14.0122 0.679993 10.2122 0.679993C8.01221 0.679993 6.21221 1.39999 4.73221 2.87999C3.29221 4.35999 2.57221 6.15999 2.57221 8.27999C2.49221 13.44 6.81221 15.56 10.1322 16.96C12.4922 17.96 14.2922 19.24 14.2922 20.88C14.2922 23.32 13.0922 24.52 10.6522 24.52C8.01221 24.52 6.17221 22.64 5.09221 18.84L0.892212 21.48C1.33221 23.68 2.45221 25.56 4.21221 27.08C5.97221 28.56 8.09221 29.32 10.5322 29.32C15.9722 29.32 19.4922 26.04 19.4922 20.6C19.5322 15.76 15.0922 13.68 11.7322 12.2C9.45221 11.12 7.53221 9.79999 7.53221 8.03999C7.53221 6.55999 8.65221 5.47999 10.2122 5.47999C11.7722 5.47999 13.0922 6.47999 14.0922 8.43999L18.2922 5.75999Z" fill="#D195E4"/>
<path d="M45.8444 29L36.3644 0.999991H31.1644L21.6844 29H27.2844L29.3244 22.4H38.2044L40.2444 29H45.8444ZM36.7244 17.6H30.8044L33.7644 7.87999L36.7244 17.6Z" fill="#D195E4"/>
<path d="M68.0622 8.95999C68.0622 4.15999 64.9822 0.999991 59.5422 0.999991H49.3422V29H54.5422V16.92H57.2622L64.7822 29H70.5822L62.8222 16.48C66.1822 15.48 68.0622 12.68 68.0622 8.95999ZM54.5422 12.12V5.79999H59.5822C61.7822 5.79999 62.8622 6.83999 62.8622 8.95999C62.8622 11.08 61.7822 12.12 59.5822 12.12H54.5422Z" fill="#D195E4"/>
<path d="M96.821 29L87.341 0.999991H82.141L72.661 29H78.261L80.301 22.4H89.181L91.221 29H96.821ZM87.701 17.6H81.781L84.741 7.87999L87.701 17.6Z" fill="#D195E4"/>
<path d="M105.519 29V16.44H116.719V29H121.919V0.999991H116.719V11.64H105.519V0.999991H100.319V29H105.519Z" fill="#D195E4"/>
</svg>
